<svg id="Layer_1" enable-background="new 0 0 64 64" height="512" viewBox="0 0 64 64" width="512" xmlns="http://www.w3.org/2000/svg"><g><g><path d="m51.65 58.33h3.69c1.447 0 2.62-1.173 2.62-2.62v-27.456c0-1.308.94-2.5 2.241-2.631 1.496-.151 2.759 1.022 2.759 2.487v27.6c0 4.208-3.412 7.62-7.62 7.62h-3.69c-1.381 0-2.5-1.119-2.5-2.5 0-1.381 1.119-2.5 2.5-2.5z"/><path d="m8.66 63.33c-4.208 0-7.62-3.412-7.62-7.62v-45.05c0-4.208 3.412-7.62 7.62-7.62h4.57c.07-1.32 1.15-2.37 2.48-2.37 1.34 0 2.42 1.05 2.49 2.37.01 0 .01.09.01.09v.04 4.73.04.1c-.08 1.31-1.16 2.36-2.5 2.36-1.33 0-2.41-1.05-2.48-2.36h-4.57c-1.447 0-2.62 1.173-2.62 2.62v5.95h51.92v-5.95c0-1.447-1.173-2.62-2.62-2.62h-4.57c-.07 1.31-1.15 2.36-2.48 2.36-1.34 0-2.42-1.05-2.49-2.36h-11.31c-.08 1.31-1.16 2.36-2.49 2.36s-2.41-1.05-2.49-2.36h-4.61c-1.272 0-2.447-.869-2.652-2.124-.262-1.6 1.092-2.876 2.613-2.876h4.65c.08-1.32 1.16-2.37 2.49-2.37s2.41 1.05 2.49 2.37h11.309c.07-1.32 1.15-2.37 2.49-2.37 1.33 0 2.41 1.05 2.48 2.37h4.57c4.208 0 7.62 3.412 7.62 7.62v7.51c0 1.9-1.54 3.44-3.44 3.44h-53.48v34.1c0 1.447 1.173 2.62 2.62 2.62h3.69c1.381 0 2.5 1.119 2.5 2.5 0 1.381-1.119 2.5-2.5 2.5z"/></g><g><path d="m32.001 29.575c-9.306 0-16.876 7.571-16.876 16.875 0 9.306 7.571 16.876 16.876 16.876s16.875-7.571 16.875-16.876c0-9.304-7.571-16.875-16.875-16.875zm0 29.227c-6.811 0-12.351-5.54-12.351-12.351 0-6.81 5.54-12.35 12.351-12.35 6.81 0 12.35 5.54 12.35 12.35-.001 6.81-5.541 12.351-12.35 12.351z"/><path d="m37.647 40.074c-.674 0-1.349.248-1.844.744l-5.76 5.76-1.886-1.886c-.977-.975-2.685-.973-3.659 0-1.002 1.001-.997 2.659 0 3.659l3.732 3.73c.487.489 1.138.758 1.829.758.716 0 1.382-.271 1.872-.765 0 0 7.538-7.539 7.562-7.563 1.005-1.005 1.003-2.692 0-3.692-.496-.497-1.171-.745-1.846-.745z"/></g></g></svg>